sfk_cyclingleg_states
version=1
nRows=5
nColumns=53
inDegrees=yes

# SIMM Motion File Header:
name sfk_cyclingleg_states
datacolumns 53
datarows 5
otherdata 1
range 0.24873433 0.25324951
endheader
time	/jointset/bb/crank_angle/value	/jointset/bb/crank_angle/speed	/jointset/spindle/pedal_angle_r/value	/jointset/spindle/pedal_angle_r/speed	/jointset/ground_pelvis/pelvis_tilt/value	/jointset/ground_pelvis/pelvis_tilt/speed	/jointset/ground_pelvis/pelvis_list/value	/jointset/ground_pelvis/pelvis_list/speed	/jointset/ground_pelvis/pelvis_rotation/value	/jointset/ground_pelvis/pelvis_rotation/speed	/jointset/ground_pelvis/pelvis_tx/value	/jointset/ground_pelvis/pelvis_tx/speed	/jointset/ground_pelvis/pelvis_ty/value	/jointset/ground_pelvis/pelvis_ty/speed	/jointset/ground_pelvis/pelvis_tz/value	/jointset/ground_pelvis/pelvis_tz/speed	/jointset/hip_r/hip_angle_r/value	/jointset/hip_r/hip_angle_r/speed	/jointset/hip_r/hip_adduction_r/value	/jointset/hip_r/hip_adduction_r/speed	/jointset/hip_r/hip_rotation_r/value	/jointset/hip_r/hip_rotation_r/speed	/jointset/knee_r/knee_angle_r/value	/jointset/knee_r/knee_angle_r/speed	/jointset/knee_r/tib_tx_r/value	/jointset/knee_r/tib_tx_r/speed	/jointset/knee_r/tib_ty_r/value	/jointset/knee_r/tib_ty_r/speed	/jointset/tib_pat_r/pat_angle_r/value	/jointset/tib_pat_r/pat_angle_r/speed	/jointset/tib_pat_r/pat_tx_r/value	/jointset/tib_pat_r/pat_tx_r/speed	/jointset/tib_pat_r/pat_ty_r/value	/jointset/tib_pat_r/pat_ty_r/speed	/jointset/ankle_r/ankle_angle_r/value	/jointset/ankle_r/ankle_angle_r/speed	/jointset/subtalar_r/subtalar_angle_r/value	/jointset/subtalar_r/subtalar_angle_r/speed	/jointset/mtp_r/mtp_angle_r/value	/jointset/mtp_r/mtp_angle_r/speed	/forceset/bifemlh_r/activation	/forceset/bifemlh_r/fiber_length	/forceset/bifemsh_r/activation	/forceset/bifemsh_r/fiber_length	/forceset/glut_max2_r/activation	/forceset/glut_max2_r/fiber_length	/forceset/vas_int_r/activation	/forceset/vas_int_r/fiber_length	/forceset/med_gas_r/activation	/forceset/med_gas_r/fiber_length	/forceset/tib_ant_r/activation	/forceset/tib_ant_r/fiber_length
      0.24873433	   -129.56183861	   -480.13863232	    143.41976429	    509.28690014	     -0.00000000	     -0.00000000	     -0.00000000	      0.00000000	     -0.00000000	      0.00000000	     -0.00000000	     -0.00000000	     -0.00000000	     -0.00000000	      0.00000000	     -0.00000000	     49.59347193	   -189.89556256	      4.38371410	     -0.14753146	      0.95317366	     16.82596960	    -57.52354633	    201.57896203	      0.00462642	     -0.01670149	     -0.47521396	      0.06028287	     17.34003902	     -5.16238218	      0.04354185	      0.05873877	     -0.02301528	     -0.00745372	     22.20382712	     17.15436721	      0.00000000	      0.00000000	     -0.00000000	     -0.00000000	     -0.00658237	      0.12982593	     -0.00658237	      0.16754731	     -0.00658237	      0.13795422	     -0.00658237	      0.12779918	      0.05000000	      0.10000000	      0.05000000	      0.10000000
      0.24994321	   -130.14226727	   -480.13863232	    144.03465659	    508.00168436	     -0.00000000	     -0.00000000	     -0.00000000	      0.00000000	     -0.00000000	      0.00000000	     -0.00000000	     -0.00000000	     -0.00000000	     -0.00000000	      0.00000000	     -0.00000000	     49.36455335	   -188.82743178	      4.38353056	     -0.15605312	      0.97341503	     16.66095016	    -57.28135974	    199.09132369	      0.00460618	     -0.01678398	     -0.47514161	      0.05940283	     17.33377193	     -5.20533864	      0.04361236	      0.05791583	     -0.02302424	     -0.00736925	     22.22465293	     17.29782966	      0.00000000	      0.00000000	     -0.00000000	     -0.00000000	     -0.00673801	      0.12972476	     -0.00673801	      0.16766919	     -0.00673801	      0.13779357	     -0.00673801	      0.12762151	      0.05000000	      0.10000000	      0.05000000	      0.10000000
      0.25115208	   -130.72269593	   -480.13863232	    144.64797230	    506.67840526	     -0.00000000	     -0.00000000	     -0.00000000	      0.00000000	     -0.00000000	      0.00000000	     -0.00000000	     -0.00000000	     -0.00000000	     -0.00000000	      0.00000000	     -0.00000000	     49.13694878	   -187.72153725	      4.38333698	     -0.16413799	      0.99345338	     16.49006524	    -57.04221658	    196.54365190	      0.00458585	     -0.01684752	     -0.47507034	      0.05850907	     17.32745559	     -5.24381591	      0.04368187	      0.05707891	     -0.02303310	     -0.00728258	     22.24564263	     17.42541413	      0.00000000	      0.00000000	     -0.00000000	     -0.00000000	     -0.00689366	      0.12962323	     -0.00689366	      0.16779948	     -0.00689366	      0.13763336	     -0.00689366	      0.12744566	      0.05000000	      0.10000000	      0.05000000	      0.10000000
      0.25195497	   -131.10819555	   -480.13863232	    145.05442021	    505.77802101	     -0.00000000	     -0.00000000	     -0.00000000	      0.00000000	     -0.00000000	      0.00000000	     -0.00000000	     -0.00000000	     -0.00000000	     -0.00000000	      0.00000000	     -0.00000000	     48.98653081	   -186.96589803	      4.38320312	     -0.16926218	      1.00664641	     16.37324689	    -56.88510418	    194.81789701	      0.00457231	     -0.01687923	     -0.47502361	      0.05790781	     17.32323601	     -5.26680247	      0.04372747	      0.05651524	     -0.02303892	     -0.00722376	     22.25966424	     17.50113193	      0.00000000	      0.00000000	     -0.00000000	     -0.00000000	     -0.00699703	      0.12955560	     -0.00699703	      0.16789950	     -0.00699703	      0.13752720	     -0.00699703	      0.12732989	      0.05000000	      0.10000000	      0.05000000	      0.10000000
      0.25324951	   -131.72975394	   -480.13863232	    145.70821116	    504.28931632	     -0.00000000	     -0.00000000	     -0.00000000	      0.00000000	     -0.00000000	      0.00000000	     -0.00000000	     -0.00000000	     -0.00000000	     -0.00000000	      0.00000000	     -0.00000000	     48.74530317	   -185.71153494	      4.38297887	     -0.17710459	      1.02771738	     16.17916962	    -56.63473528	    191.97789797	      0.00455043	     -0.01691266	     -0.47494928	      0.05692540	     17.31639623	     -5.29938683	      0.04380004	      0.05559308	     -0.02304821	     -0.00712678	     22.28239118	     17.60763083	      0.00000000	      0.00000000	     -0.00000000	      0.00000000	     -0.00716370	      0.12944625	     -0.00716370	      0.16803351	     -0.00716370	      0.13735652	     -0.00716370	      0.12714504	      0.05000000	      0.10000000	      0.05000000	      0.10000000
